<?xml version="1.0" encoding="utf-8"?>
<!-- Generator: Adobe Illustrator 27.5.0, SVG Export Plug-In . SVG Version: 6.00 Build 0)  -->
<svg version="1.1" id="Layer_1" xmlns="http://www.w3.org/2000/svg" xmlns:xlink="http://www.w3.org/1999/xlink" x="0px" y="0px"
	 viewBox="0 0 512 512" style="enable-background:new 0 0 512 512;" xml:space="preserve">
<g>
	<path d="M0,36.67C0,16.42,16.83,0,37.6,0h436.8C495.17,0,512,16.42,512,36.67v438.66c0,20.26-16.83,36.67-37.6,36.67H37.6
		C16.83,512,0,495.58,0,475.33V36.67z M158.18,428.61v-231.2H81.34v231.2H158.18z M119.78,165.82c26.78,0,43.46-17.73,43.46-39.94
		c-0.48-22.69-16.64-39.94-42.94-39.94S76.8,103.23,76.8,125.89c0,22.21,16.67,39.94,42.46,39.94H119.78z M276.83,428.61V299.49
		c0-6.91,0.51-13.82,2.56-18.75c5.54-13.79,18.18-28.1,39.42-28.1c27.81,0,38.91,21.18,38.91,52.29v123.68h76.83V296
		c0-71.04-37.89-104.06-88.45-104.06c-40.77,0-59.04,22.4-69.28,38.18v0.8h-0.51l0.51-0.8v-32.7h-76.8c0.96,21.7,0,231.2,0,231.2
		H276.83z"/>
</g>
</svg>
